# xmcd
#
# Track frame offsets: 
#        182
#        23140
#        44350
#        67187
#        89122
#        107197
#        125052
#        143777
#        167140
#        178580
#        194825
#        212430
#        231997
#
# Disc length: 3137 seconds
#
# Revision: 7
# Processed by: cddbd v1.5.2PL0 Copyright (c) Steve Scherf et al.
# Submitted via: ExactAudioCopyFreeDBPlugin 1.0
#
DISCID=cb0c3f0d
DTITLE=En Vogue - Funky Divas
DYEAR=1992
DGENRE=SMB
TTITLE0=This is Your Life
TTITLE1=My Lovin' (You're Never Gonna Get It)
TTITLE2=Hip Hop Lover
TTITLE3=Free Your Mind
TTITLE4=Desire
TTITLE5=Giving Him Something He Can Feel
TTITLE6=It Ain't Over Till the Fat Lady Sings
TTITLE7=Give it Up, Turn it Loose
TTITLE8=Yesterday
TTITLE9=Hooked on Your Love
TTITLE10=Love Don't Love You
TTITLE11=What is Love
TTITLE12=Thanks - Prayer
EXTD=YEAR: 1992
EXTT0=
EXTT1=
EXTT2=
EXTT3=
EXTT4=
EXTT5=
EXTT6=
EXTT7=
EXTT8=
EXTT9=
EXTT10=
EXTT11=
EXTT12=
PLAYORDER=
